<?xml version="1.0" encoding="utf-8"?>
<!-- Generator: Adobe Illustrator 18.0.0, SVG Export Plug-In . SVG Version: 6.00 Build 0)  -->
<!DOCTYPE svg PUBLIC "-//W3C//DTD SVG 1.1//EN" "http://www.w3.org/Graphics/SVG/1.1/DTD/svg11.dtd">
<svg version="1.1" id="Layer_1" xmlns="http://www.w3.org/2000/svg" xmlns:xlink="http://www.w3.org/1999/xlink" x="0px" y="0px"
	 viewBox="0 0 80 80" enable-background="new 0 0 80 80" xml:space="preserve">
<g>
	<path fill="#FFFFFF" d="M38.9,77.5c-19.9,0-36-16.2-36-36c0-19.9,16.2-36,36-36c19.9,0,36,16.2,36,36
		C74.9,61.3,58.8,77.5,38.9,77.5z M38.9,12.5c-16,0-29,13-29,29s13,29,29,29s29-13,29-29S54.9,12.5,38.9,12.5z"/>
</g>
<g>
	<path fill="#FFFFFF" d="M24.8,58.7c-0.8,0-1.6-0.3-2.3-0.9c-1.2-1.2-1.2-3.3,0-4.5l28.7-28.7c1.2-1.2,3.3-1.2,4.5,0
		c1.2,1.2,1.2,3.3,0,4.5L27.1,57.7C26.5,58.3,25.7,58.7,24.8,58.7z"/>
</g>
<g>
	<path fill="#FFFFFF" d="M53.6,58.7c-0.8,0-1.6-0.3-2.3-0.9L22.6,29c-1.2-1.2-1.2-3.3,0-4.5c1.3-1.2,3.3-1.2,4.5,0l28.7,28.7
		c1.2,1.2,1.2,3.3,0,4.5C55.2,58.3,54.4,58.7,53.6,58.7z"/>
</g>
</svg>
