<?xml version="1.0" encoding="utf-8"?>
<!-- Generator: Adobe Illustrator 18.0.0, SVG Export Plug-In . SVG Version: 6.00 Build 0)  -->
<!DOCTYPE svg PUBLIC "-//W3C//DTD SVG 1.1//EN" "http://www.w3.org/Graphics/SVG/1.1/DTD/svg11.dtd">
<svg version="1.1" id="Layer_1" xmlns="http://www.w3.org/2000/svg" xmlns:xlink="http://www.w3.org/1999/xlink" x="0px" y="0px"
	 viewBox="0 0 544.1 544.1" enable-background="new 0 0 544.1 544.1" xml:space="preserve">
<g id="BsZX6c.tif">
	<g>
		<path fill="#FFFFFF" d="M416.1,0c3,0,6,0,9,0c2.8,0.5,5.5,1,8.3,1.6c47.4,10.2,80.2,38.7,100.4,81.8c5.2,11.1,7,23.7,10.3,35.6
			c0,3.3,0,6.7,0,10c-1.6,1.3-3.4,2.5-4.9,3.9C414.1,258,289,383.1,163.9,508.2c-2,2-4.7,4-7.4,4.5C115.7,521,74.9,529,34.1,537.2
			c-10.4,2.1-20.7,4.5-31,6.8c-2.5,0.5-3.5-0.5-3-3c0.4-0.9,0.9-1.7,1.1-2.6c10-49.7,19.9-99.5,30-149.2c0.6-3.2,2.5-6.6,4.8-8.9
			C162.6,253.5,289.4,126.7,416.1,0z M103,431.5C223.2,309.2,343.5,186.7,463.8,64.3c-5.8-9.3-15.2-16.7-25.3-20.8
			c-4.4-1.8-7.3-1.2-10.8,2.3C309.8,165,191.8,284,73.8,403c-1,1-1.9,2.2-2.8,3.1C81.7,414.5,92.2,422.8,103,431.5z"/>
	</g>
</g>
</svg>
